<svg width="512" height="512" viewBox="0 0 512 512" fill="none" xmlns="http://www.w3.org/2000/svg">
  <rect width="512" height="512" rx="120" fill="#141821"/>
  <g transform="translate(72 72) scale(1.47)">
    <g transform="matrix(1, 0, 0, 1, 1.253317, 0.75199)">
      <path d="M 167.83 192.51 C 126.09 192.51 102.13 158.84 102.13 125.75 L 102.13 122.72 C 102.13 102.21 88.86 88.16 70.31 88.16 C 50.91 88.16 37.49 103.26 37.49 123.93 L 37.49 162.22 C 37.49 176.25 24.21 191.47 7.79 191.47 L 6.24 191.47 L 6.24 126.28 C 6.24 85.72 34.25 56.91 70.73 56.91 C 107.21 56.91 132.68 87.42 132.68 120.88 L 132.68 123.93 C 132.68 145.62 150.24 162.91 172.21 162.91 C 182.313 162.978 191.311 159.087 198.116 152.942 C 198.127 152.932 198.138 152.922 198.149 152.912 L 209.221 178.45 C 197.173 187.681 185.099 192.51 167.83 192.51 Z" fill="#E7CDAA"/>
      <path d="M 243.76 125.75 L 243.76 191.24 C 227.61 191.24 220.12 184.99 213.54 174.96 C 213.539 174.961 213.538 174.961 213.537 174.962 L 202.165 148.714 C 202.166 148.713 202.167 148.711 202.168 148.71 C 207.891 141.795 211.27 133.054 211.27 124.11 L 211.27 123.73 C 211.27 103.74 197.02 86.15 173.31 86.15 C 158.73 86.15 149.78 91.34 140.32 101.97 C 138.09 94.06 133.9 84.71 127.47 76.29 L 127.65 76.11 C 139.87 64.78 155.73 56.91 174.99 56.91 C 216.79 56.91 243.76 88.93 243.76 125.75 Z" fill="#E7CDAA"/>
    </g>
  </g>
</svg>
